# xmcd CD database file
#
# Track frame offsets:
#	150
#	12437
#	27357
#	42695
#	57202
#	71435
#	84747
#	98540
#	114010
#	126182
#	141210
#	154010
#	167805
#	180517
#	192070
#	207290
#	220087
#	233145
#	246947
#	261690
#	276010
#	278990
#	286837
#	297452
#	309207
#	317802
#	320787
#
# Disc length: 4536 seconds
#
# Revision: 0
# Processed by: cddbd v1.5.1PL2 Copyright (c) Steve Scherf et al.
# Submitted via: CDex 1.51
#
DISCID=9411b61b
DTITLE=Adelaide Hall - A Centenary Celebration - CD 2
DYEAR=1900
DGENRE=Jazz
TTITLE0=T'aint what you do (It's the way that you do it)
TTITLE1=Deep purple
TTITLE2=The lady is a tramp
TTITLE3=Transatlantic lullaby
TTITLE4=Begin the Beguine
TTITLE5=Careless
TTITLE6=This can't be love
TTITLE7=All the things you are
TTITLE8=Our love affair
TTITLE9=Room five hundred and four
TTITLE10=Ain't it a shame about Mame?
TTITLE11=It's always you
TTITLE12=Yes, my darling daughter
TTITLE13=I, Yi, Yi, Yi, Yi (I like you very much)
TTITLE14=How did he look?
TTITLE15=Minnie from Trinidad
TTITLE16=As time goes by
TTITLE17=I don't want anybody at all (If I can't have you)
TTITLE18=Sophisticated lady
TTITLE19=There goes that song again
TTITLE20=Intro: I can't give you anything but love
TTITLE21=It's been a long long time
TTITLE22=(All of a sudden) My heart sings
TTITLE23=Porgy
TTITLE24=Old folks at home (Swanee river)
TTITLE25=Signing off: I can't give you anything but love
TTITLE26=I'm gonna love that guy (Like he's never been loved before)
EXTD=
EXTT0=
EXTT1=
EXTT2=
EXTT3=
EXTT4=
EXTT5=
EXTT6=
EXTT7=
EXTT8=
EXTT9=
EXTT10=
EXTT11=
EXTT12=
EXTT13=
EXTT14=
EXTT15=
EXTT16=
EXTT17=
EXTT18=
EXTT19=
EXTT20=
EXTT21=
EXTT22=
EXTT23=
EXTT24=
EXTT25=
EXTT26=
PLAYORDER=
